<svg width="200" height="200" viewBox="0 0 200 200" fill="none" xmlns="http://www.w3.org/2000/svg">
<rect width="200" height="200" rx="8" fill="#F7F5F2"/>
<path fill-rule="evenodd" clip-rule="evenodd" d="M81.3333 27.9749C81.3333 26.8842 82.2175 26 83.3083 26H154.024C155.115 26 156 26.8848 156 27.9762V98.6905C156 99.7819 155.115 100.667 154.024 100.667H120.643C120.606 100.667 120.57 100.666 120.533 100.664V100.667C119.133 100.794 118.718 101.835 118.665 102.563C118.666 102.59 118.667 102.616 118.667 102.643V136.024C118.667 137.115 117.782 138 116.69 138H83.3095C83.299 138 83.2886 138 83.2782 138C83.252 137.999 83.2259 137.998 83.2 137.997V138C81.7995 138.127 81.385 139.168 81.3318 139.897C81.3328 139.923 81.3333 139.95 81.3333 139.976V173.357C81.3333 174.449 80.4486 175.333 79.3572 175.333H45.9762C44.8848 175.333 44 174.449 44 173.357V139.976C44 138.885 44.8848 138 45.9762 138H79.3572C79.4088 138 79.46 138.002 79.5106 138.006C80.8285 137.915 81.2767 136.756 81.3333 136.133H81.3363C81.3343 136.097 81.3333 136.061 81.3333 136.024V102.643C81.3333 102.591 81.3353 102.54 81.3392 102.489C81.2481 101.171 80.0895 100.723 79.4667 100.667V100.664C79.4304 100.666 79.3939 100.667 79.3572 100.667H45.9762C44.8848 100.667 44 99.7819 44 98.6905V65.3083C44 64.2175 44.8842 63.3333 45.9749 63.3333H79.3584C79.4098 63.3333 79.4608 63.3353 79.5112 63.3392C80.8287 63.2477 81.2767 62.0894 81.3333 61.4667H81.3363C81.3343 61.4308 81.3333 61.3947 81.3333 61.3584V27.9749ZM116.844 100.673C116.793 100.669 116.742 100.667 116.69 100.667H83.3095C83.2829 100.667 83.2563 100.667 83.2299 100.668C82.5016 100.615 81.4607 100.201 81.3333 98.8H81.3304C81.3323 98.7638 81.3333 98.7272 81.3333 98.6905V65.3083C81.3333 65.2819 81.3328 65.2556 81.3318 65.2295C81.3851 64.5012 81.7998 63.4606 83.2 63.3333V63.3304C83.2358 63.3324 83.2719 63.3333 83.3083 63.3333H116.427C117.664 63.3333 118.667 64.3362 118.667 65.5733V98.6905C118.667 98.7272 118.668 98.7638 118.67 98.8H118.667C118.61 99.4228 118.162 100.581 116.844 100.673Z" fill="#FF613B"/>
</svg>
