<svg width="145" height="48" viewBox="0 0 145 48" fill="none" xmlns="http://www.w3.org/2000/svg">
<path fill-rule="evenodd" clip-rule="evenodd" d="M17 10.3703C17 10.1658 17.1658 10 17.3703 10H30.6295C30.8341 10 31 10.1659 31 10.3705V23.6295C31 23.8341 30.8341 24 30.6295 24H24.3705C24.3636 24 24.3568 23.9998 24.35 23.9994V24C24.0874 24.0239 24.0097 24.2191 23.9997 24.3556C23.9999 24.3606 24 24.3655 24 24.3705V30.6295C24 30.8341 23.8341 31 23.6295 31H17.3705C17.3686 31 17.3666 31 17.3647 31C17.3597 30.9999 17.3549 30.9997 17.35 30.9994V31C17.0874 31.0239 17.0097 31.2191 16.9997 31.3556C16.9999 31.3606 17 31.3655 17 31.3705V37.6295C17 37.8341 16.8341 38 16.6295 38H10.3705C10.1659 38 10 37.8341 10 37.6295V31.3705C10 31.1659 10.1659 31 10.3705 31H16.6295C16.6391 31 16.6487 31.0004 16.6582 31.0011C16.9054 30.984 16.9894 30.7668 17 30.65H17.0006C17.0002 30.6432 17 30.6364 17 30.6295V24.3705C17 24.3609 17.0004 24.3513 17.0011 24.3418C16.984 24.0947 16.7668 24.0106 16.65 24V23.9994C16.6432 23.9998 16.6364 24 16.6295 24H10.3705C10.1659 24 10 23.8341 10 23.6295V17.3703C10 17.1658 10.1658 17 10.3703 17H16.6297C16.6393 17 16.6489 17.0004 16.6584 17.0011C16.9054 16.984 16.9894 16.7668 17 16.65H17.0005C17.0002 16.6433 17 16.6365 17 16.6297V10.3703ZM23.6582 24.0011C23.6487 24.0004 23.6391 24 23.6295 24H17.3705C17.3655 24 17.3606 24.0001 17.3556 24.0003C17.2191 23.9903 17.0239 23.9126 17 23.65H16.9994C16.9998 23.6432 17 23.6364 17 23.6295V17.3703C17 17.3654 16.9999 17.3604 16.9997 17.3555C17.0097 17.219 17.0875 17.0239 17.35 17V16.9995C17.3567 16.9998 17.3635 17 17.3703 17H23.58C23.812 17 24 17.188 24 17.42V23.6295C24 23.6364 24.0002 23.6432 24.0006 23.65H24C23.9894 23.7668 23.9053 23.984 23.6582 24.0011Z" fill="#FF613B"/>
<path d="M130.12 34C127.938 34 126.51 33.2208 125.25 32.2338L126.588 30.3117C127.821 31.1689 129.133 31.7013 130.289 31.7013C131.782 31.7013 132.393 31.026 132.393 30.2858C132.393 27.7273 125.834 29.1819 125.834 24.5845C125.834 22.4546 127.406 20.8182 130.198 20.8182C132.107 20.8182 133.666 21.3507 134.808 22.3247L133.484 24.1429C132.484 23.4416 131.471 23.1169 130.211 23.1169C128.795 23.1169 128.302 23.7013 128.302 24.3897C128.302 26.8312 134.821 25.6104 134.821 30.2078C134.821 32.3896 133.198 34 130.12 34Z" fill="#F7F5F2"/>
<path d="M117.664 23.2338C115.522 23.2338 114.314 24.4416 114.314 27.1039V33.6883H111.781V21.052H114.314V22.5455C115.08 21.5325 116.353 20.8182 118.21 20.8182C120.937 20.8182 123.34 22.3637 123.34 26.5845V33.6883H120.807V26.8052C120.807 24.4026 119.664 23.2338 117.664 23.2338Z" fill="#F7F5F2"/>
<path d="M102.86 34C99.1064 34 96.1973 31 96.1973 27.4026C96.1973 23.7663 99.1064 20.8182 102.86 20.8182C106.613 20.8182 109.522 23.7663 109.522 27.4026C109.522 31 106.613 34 102.86 34ZM98.7557 27.4026C98.7557 29.6624 100.47 31.5845 102.86 31.5845C105.249 31.5845 106.963 29.6624 106.963 27.4026C106.963 25.1429 105.236 23.2338 102.86 23.2338C100.483 23.2338 98.7557 25.1429 98.7557 27.4026Z" fill="#F7F5F2"/>
<path d="M91.3655 33.6885V21.0522H93.8979V33.6885H91.3655ZM90.9629 16.5977C90.9629 15.6626 91.7031 14.9483 92.6382 14.9483C93.5733 14.9483 94.3135 15.6626 94.3135 16.5977C94.3135 17.5717 93.5733 18.273 92.6382 18.273C91.7031 18.273 90.9629 17.5717 90.9629 16.5977Z" fill="#F7F5F2"/>
<path d="M83.4824 16.8701H86.0019V21.0519H89.5993V23.4675H86.0019V29.4285C86.0019 30.6623 86.3915 31.3766 87.6902 31.3766C88.4694 31.3766 89.1577 31.2467 89.2876 31.1948V33.4675C88.5863 33.6883 88.0538 33.8441 87.0409 33.8441C84.6902 33.8441 83.4824 32.3896 83.4824 29.9091V23.4675H81.4824V21.0519H83.4824V16.8701Z" fill="#F7F5F2"/>
<path d="M77.0276 33.6885V21.0521H79.5601V33.6885H77.0276ZM76.625 16.5976C76.625 15.6625 77.3653 14.9482 78.3003 14.9482C79.2354 14.9482 79.9756 15.6625 79.9756 16.5976C79.9756 17.5716 79.2354 18.2729 78.3003 18.2729C77.3653 18.2729 76.625 17.5716 76.625 16.5976Z" fill="#F7F5F2"/>
<path d="M69.9619 34C67.7801 34 66.3515 33.2208 65.0918 32.2338L66.4295 30.3117C67.6632 31.1689 68.9749 31.7013 70.1308 31.7013C71.6243 31.7013 72.2346 31.026 72.2346 30.2858C72.2346 27.7273 65.6762 29.1819 65.6762 24.5845C65.6762 22.4546 67.2476 20.8182 70.0398 20.8182C71.9489 20.8182 73.5074 21.3507 74.6502 22.3247L73.3256 24.1429C72.3256 23.4416 71.3126 23.1169 70.0528 23.1169C68.6372 23.1169 68.1437 23.7013 68.1437 24.3897C68.1437 26.8312 74.6632 25.6104 74.6632 30.2078C74.6632 32.3896 73.0398 34 69.9619 34Z" fill="#F7F5F2"/>
<path d="M57.3381 34.0002C53.5849 34.0002 50.6758 31.0002 50.6758 27.4028C50.6758 23.7664 53.5849 20.8184 57.3381 20.8184C61.0914 20.8184 64.0004 23.7664 64.0004 27.4028C64.0004 31.0002 61.0914 34.0002 57.3381 34.0002ZM53.2342 27.4028C53.2342 29.6625 54.9485 31.5846 57.3381 31.5846C59.7277 31.5846 61.442 29.6625 61.442 27.4028C61.442 25.143 59.7147 23.2339 57.3381 23.2339C54.9615 23.2339 53.2342 25.143 53.2342 27.4028Z" fill="#F7F5F2"/>
<path d="M39.7013 33.6883H37V14H42.8961C47.987 14 50.3247 16.7013 50.3247 20.3506C50.3247 24.013 47.987 26.7143 42.8961 26.7143H39.7013V33.6883ZM39.7013 24.1688H42.8961C46.1558 24.1688 47.6363 22.6104 47.6363 20.3636C47.6363 18.1299 46.1558 16.5584 42.8961 16.5584H39.7013V24.1688Z" fill="#F7F5F2"/>
</svg>
