<svg width="581" height="192" viewBox="0 0 581 192" fill="none" xmlns="http://www.w3.org/2000/svg">
<path fill-rule="evenodd" clip-rule="evenodd" d="M68.7676 41.4812C68.7676 40.6632 69.4307 40 70.2488 40H123.285C124.104 40 124.768 40.6636 124.768 41.4821V94.5179C124.768 95.3364 124.104 96 123.285 96H98.2497C98.2221 96 98.1948 95.9992 98.1676 95.9978V96C97.1172 96.0955 96.8063 96.8762 96.7664 97.4225C96.7672 97.4423 96.7676 97.4621 96.7676 97.4821V122.518C96.7676 123.336 96.104 124 95.2854 124H70.2497C70.2419 124 70.234 124 70.2262 124C70.2066 124 70.187 123.999 70.1676 123.998V124C69.1172 124.095 68.8063 124.876 68.7664 125.422C68.7672 125.442 68.7676 125.462 68.7676 125.482V150.518C68.7676 151.336 68.104 152 67.2854 152H42.2497C41.4312 152 40.7676 151.336 40.7676 150.518V125.482C40.7676 124.664 41.4312 124 42.2497 124H67.2854C67.3242 124 67.3626 124.001 67.4005 124.004C68.389 123.936 68.7251 123.067 68.7676 122.6H68.7698C68.7683 122.573 68.7676 122.545 68.7676 122.518V97.4821C68.7676 97.4434 68.7691 97.405 68.772 97.367C68.7037 96.3786 67.8347 96.0425 67.3676 96V95.9978C67.3404 95.9992 67.313 96 67.2854 96H42.2497C41.4312 96 40.7676 95.3364 40.7676 94.5179V69.4812C40.7676 68.6632 41.4307 68 42.2488 68H67.2864C67.3249 68 67.3632 68.0015 67.401 68.0044C68.3891 67.9358 68.7251 67.067 68.7676 66.6H68.7698C68.7683 66.5731 68.7676 66.546 68.7676 66.5188V41.4812ZM95.4005 96.0044C95.3625 96.0015 95.3242 96 95.2854 96H70.2497C70.2297 96 70.2098 96.0004 70.19 96.0012C69.6438 95.9613 68.8631 95.6504 68.7676 94.6H68.7653C68.7668 94.5728 68.7676 94.5454 68.7676 94.5179V69.4812C68.7676 69.4614 68.7672 69.4417 68.7664 69.4221C68.8064 68.8759 69.1174 68.0955 70.1676 68V67.9978C70.1945 67.9993 70.2215 68 70.2488 68H95.0876C96.0154 68 96.7676 68.7522 96.7676 69.68V94.5179C96.7676 94.5454 96.7683 94.5728 96.7698 94.6H96.7676C96.7251 95.0671 96.389 95.9361 95.4005 96.0044Z" fill="#FF613B"/>
<path d="M521.248 136C512.521 136 506.807 132.883 501.768 128.935L507.118 121.247C512.053 124.675 517.3 126.805 521.923 126.805C527.897 126.805 530.339 124.104 530.339 121.143C530.339 110.909 504.105 116.727 504.105 98.3376C504.105 89.8181 510.391 83.2726 521.56 83.2726C529.196 83.2726 535.43 85.4025 540.001 89.2986L534.703 96.5713C530.703 93.7661 526.651 92.4674 521.612 92.4674C515.949 92.4674 513.975 94.8051 513.975 97.5583C513.975 107.325 540.053 102.441 540.053 120.831C540.053 129.558 533.56 136 521.248 136Z" fill="#191919"/>
<path d="M471.425 92.935C462.854 92.935 458.022 97.7661 458.022 108.415V134.753H447.893V84.2077H458.022V90.1817C461.087 86.1298 466.178 83.2726 473.607 83.2726C484.516 83.2726 494.126 89.4545 494.126 106.338V134.753H483.996V107.221C483.996 97.6103 479.425 92.935 471.425 92.935Z" fill="#191919"/>
<path d="M412.206 136C397.193 136 385.557 124 385.557 109.61C385.557 95.0648 397.193 83.2726 412.206 83.2726C427.219 83.2726 438.855 95.0648 438.855 109.61C438.855 124 427.219 136 412.206 136ZM395.79 109.61C395.79 118.649 402.648 126.338 412.206 126.338C421.764 126.338 428.622 118.649 428.622 109.61C428.622 100.571 421.712 92.935 412.206 92.935C402.699 92.935 395.79 100.571 395.79 109.61Z" fill="#191919"/>
<path d="M366.23 134.754V84.2085H376.359V134.754H366.23ZM364.619 66.3903C364.619 62.6501 367.58 59.7929 371.32 59.7929C375.061 59.7929 378.022 62.6501 378.022 66.3903C378.022 70.2864 375.061 73.0916 371.32 73.0916C367.58 73.0916 364.619 70.2864 364.619 66.3903Z" fill="#191919"/>
<path d="M334.697 67.4801H344.775V84.2074H359.165V93.8697H344.775V117.714C344.775 122.649 346.334 125.506 351.528 125.506C354.645 125.506 357.399 124.987 357.918 124.779V133.87C355.113 134.753 352.983 135.376 348.931 135.376C339.528 135.376 334.697 129.558 334.697 119.636V93.8697H326.697V84.2074H334.697V67.4801Z" fill="#191919"/>
<path d="M308.878 134.754V84.2082H319.008V134.754H308.878ZM307.268 66.39C307.268 62.6498 310.229 59.7926 313.969 59.7926C317.709 59.7926 320.67 62.6498 320.67 66.39C320.67 70.2861 317.709 73.0913 313.969 73.0913C310.229 73.0913 307.268 70.2861 307.268 66.39Z" fill="#191919"/>
<path d="M280.615 136C271.888 136 266.174 132.883 261.135 128.935L266.485 121.247C271.42 124.675 276.667 126.805 281.291 126.805C287.265 126.805 289.706 124.104 289.706 121.143C289.706 110.909 263.472 116.727 263.472 98.3376C263.472 89.8181 269.758 83.2726 280.927 83.2726C288.563 83.2726 294.797 85.4025 299.368 89.2986L294.07 96.5713C290.07 93.7661 286.018 92.4674 280.979 92.4674C275.317 92.4674 273.343 94.8051 273.343 97.5583C273.343 107.325 299.42 102.441 299.42 120.831C299.42 129.558 292.927 136 280.615 136Z" fill="#191919"/>
<path d="M230.12 136C215.107 136 203.471 124 203.471 109.611C203.471 95.0653 215.107 83.2731 230.12 83.2731C245.133 83.2731 256.769 95.0653 256.769 109.611C256.769 124 245.133 136 230.12 136ZM213.704 109.611C213.704 118.65 220.562 126.338 230.12 126.338C239.678 126.338 246.536 118.65 246.536 109.611C246.536 100.572 239.626 92.9354 230.12 92.9354C220.614 92.9354 213.704 100.572 213.704 109.611Z" fill="#191919"/>
<path d="M159.573 134.753H148.768V55.9997H172.352C192.716 55.9997 202.066 66.8049 202.066 81.4022C202.066 96.0516 192.716 106.857 172.352 106.857H159.573V134.753ZM159.573 96.6749H172.352C185.391 96.6749 191.313 90.4412 191.313 81.4542C191.313 72.5191 185.391 66.2334 172.352 66.2334H159.573V96.6749Z" fill="#191919"/>
</svg>
